<mxfile host="app.diagrams.net" modified="2022-02-05T12:23:44.176Z" agent="5.0 (Macintosh; Intel Mac OS X 10_15_7) AppleWebKit/537.36 (KHTML, like Gecko) Chrome/98.0.4758.80 Safari/537.36" etag="E55pWL_-wsATPle8p6nw" version="15.3.2" type="github">
  <diagram id="ujuTwKMfnZDmf8Q3nfq1" name="Page-1">
    <mxGraphModel dx="2835" dy="1129" grid="1" gridSize="10" guides="1" tooltips="1" connect="1" arrows="1" fold="1" page="1" pageScale="1" pageWidth="827" pageHeight="1169" math="0" shadow="0">
      <root>
        <mxCell id="0" />
        <mxCell id="1" parent="0" />
        <mxCell id="3BJufVtxNfbQGMjCIsEw-3" value="" style="edgeStyle=orthogonalEdgeStyle;rounded=0;orthogonalLoop=1;jettySize=auto;html=1;" parent="1" source="3BJufVtxNfbQGMjCIsEw-1" target="3BJufVtxNfbQGMjCIsEw-2" edge="1">
          <mxGeometry relative="1" as="geometry" />
        </mxCell>
        <mxCell id="3BJufVtxNfbQGMjCIsEw-1" value="" style="rounded=0;whiteSpace=wrap;html=1;" parent="1" vertex="1">
          <mxGeometry x="-533" y="180" width="240" height="160" as="geometry" />
        </mxCell>
        <mxCell id="3BJufVtxNfbQGMjCIsEw-5" value="" style="edgeStyle=orthogonalEdgeStyle;rounded=0;orthogonalLoop=1;jettySize=auto;html=1;" parent="1" source="3BJufVtxNfbQGMjCIsEw-2" target="3BJufVtxNfbQGMjCIsEw-4" edge="1">
          <mxGeometry relative="1" as="geometry" />
        </mxCell>
        <mxCell id="3BJufVtxNfbQGMjCIsEw-2" value="" style="ellipse;whiteSpace=wrap;html=1;rounded=0;" parent="1" vertex="1">
          <mxGeometry x="180" y="230" width="120" height="60" as="geometry" />
        </mxCell>
        <mxCell id="3BJufVtxNfbQGMjCIsEw-4" value="" style="shape=singleArrow;whiteSpace=wrap;html=1;arrowWidth=0.4;arrowSize=0.4;rounded=0;" parent="1" vertex="1">
          <mxGeometry x="200" y="370" width="80" height="60" as="geometry" />
        </mxCell>
      </root>
    </mxGraphModel>
  </diagram>
</mxfile>
